#!OML:ASF H:\Dans Jumps\Project 1\Capture day 1\Session 1\subject.ASF
:FULLY-SPECIFIED
:DEGREES
312
root -0.104002 14.7772 6.87567 -5.28997 0.686301 -2.391
lowerback 9.58233 0.950432 -2.50736
upperback 2.69697 1.06724 1.41116
thorax -2.64075 0.538275 2.74974
lowerneck -9.97153 -1.19866 -0.911978
upperneck 30.0254 -2.01649 1.6883
head 11.4117 -0.805241 0.527803
rclavicle 2.17545e-014 2.42517e-014
rhumerus -16.1084 -9.17595 -81.7351
rradius 29.442
rwrist 39.3288
rhand -22.341 -28.3051
rfingers 7.12502
rthumb 4.07946 -58.2458
lclavicle 2.17545e-014 2.42517e-014
lhumerus -17.5608 -2.38448 86.9432
lradius 19.3992
lwrist 0.391552
lhand -25.7987 -6.08319
lfingers 7.12502
lthumb 0.740176 23.8953
rfemur -40.1827 -3.10169 22.1235
rtibia 72.1954
rfoot -24.3466 -5.00229
rtoes -0.992966
lfemur -39.6124 5.60333 -15.8219
ltibia 71.9765
lfoot -21.5003 11.1814
ltoes -19.785
313
root -0.111878 14.8189 6.97017 -4.96476 0.589527 -2.4172
lowerback 9.35462 1.00776 -2.52277
upperback 2.67315 1.14514 1.35838
thorax -2.5442 0.576034 2.69671
lowerneck -9.99996 -1.23397 -0.862153
upperneck 29.7766 -2.08761 1.73719
head 11.3219 -0.827305 0.527274
rclavicle -2.39908e-014 -2.66371e-014
rhumerus -15.1133 -8.39911 -81.9423
rradius 30.614
rwrist 38.5095
rhand -22.5266 -28.264
rfingers 7.12502
rthumb 3.90026 -58.208
lclavicle -2.39908e-014 -2.66371e-014
lhumerus -16.9566 -3.33239 87.0704
lradius 20.711
lwrist 1.878
lhand -26.6256 -6.76147
lfingers 7.12502
lthumb -0.0584809 23.2183
rfemur -39.9692 -3.05465 22.2109
rtibia 71.9379
rfoot -24.5435 -5.03776
rtoes -0.978313
lfemur -39.4458 5.97367 -15.7641
ltibia 71.8041
lfoot -21.6389 11.0916
ltoes -19.6345
314
root -0.117388 14.875 7.05952 -4.72195 0.410533 -2.4165
lowerback 9.25197 1.10552 -2.52844
upperback 2.69825 1.27448 1.28605
thorax -2.46854 0.639045 2.6113
lowerneck -10.0192 -1.27733 -0.816698
upperneck 29.5156 -2.1693 1.78924
head 11.2263 -0.854548 0.527399
rclavicle 4.99446e-015 -5.76476e-015
rhumerus -14.1736 -7.78173 -82.1006
rradius 31.6504
rwrist 37.7931
rhand -22.6779 -28.1836
rfingers 7.12502
rthumb 3.75417 -58.1303
lclavicle 4.99446e-015 -5.76476e-015
lhumerus -16.4027 -4.15503 87.1761
lradius 21.8328
lwrist 3.63164
lhand -27.4383 -7.57089
lfingers 7.12502
lthumb -0.843399 22.4072
rfemur -39.5642 -2.92378 22.2596
rtibia 71.4576
rfoot -24.6317 -5.00336
rtoes -0.873111
lfemur -39.0813 6.38911 -15.7319
ltibia 71.4364
lfoot -21.6608 10.9762
ltoes -19.4665
315
root -0.120489 14.9435 7.14381 -4.53661 0.190738 -2.39313
lowerback 9.25682 1.22285 -2.53267
upperback 2.74459 1.42728 1.20454
thorax -2.43111 0.714011 2.51184
lowerneck -10.0197 -1.31944 -0.822227
upperneck 29.3048 -2.25108 1.88468
head 11.148 -0.882173 0.55247
rclavicle 1.24862e-014 -1.59028e-015
rhumerus -13.3085 -7.22685 -82.2127
rradius 32.5261
rwrist 37.1932
rhand -22.7543 -28.0781
rfingers 7.12502
rthumb 3.68038 -58.0261
lclavicle 1.24862e-014 -1.59028e-015
lhumerus -15.9189 -4.8709 87.28
lradius 22.7254
lwrist 5.60374
lhand -28.1499 -8.44794
lfingers 7.12502
lthumb -1.5307 21.5263
rfemur -39.051 -2.74774 22.2695
rtibia 70.9409
rfoot -24.7418 -4.93731
rtoes -0.697256
lfemur -38.6183 6.80089 -15.7357
ltibia 71.0658
lfoot -21.6588 10.9136
ltoes -19.2634
316
root -0.121807 15.0233 7.22236 -4.38147 -0.0232109 -2.35223
lowerback 9.34129 1.33658 -2.54665
upperback 2.80626 1.57251 1.12193
thorax -2.42102 0.785397 2.4164
lowerneck -10.0204 -1.35418 -0.865522
upperneck 29.1724 -2.32076 1.99903
head 11.1007 -0.905706 0.592636
rclavicle -2.23384e-014 3.97569e-015
rhumerus -12.4867 -6.67981 -82.2956
rradius 33.2218
rwrist 36.7102
rhand -22.7216 -27.9881
rfingers 7.12502
rthumb 3.71191 -57.9355
lclavicle -2.23384e-014 3.97569e-015
lhumerus -15.504 -5.49991 87.3855
lradius 23.3865
lwrist 7.67233
lhand -28.7128 -9.33521
lfingers 7.12502
lthumb -2.07438 20.6344
rfemur -38.4375 -2.56051 22.2452
rtibia 70.2556
rfoot -24.7664 -4.83188
rtoes -0.453232
lfemur -38.0777 7.15537 -15.7783
ltibia 70.5577
lfoot -21.5133 10.8615
ltoes -19.0346
317
root -0.120215 15.0212 7.30466 -4.22543 -0.185686 -2.29795
lowerback 9.47236 1.42668 -2.57028
upperback 2.8702 1.68432 1.04124
thorax -2.43213 0.840402 2.33116
lowerneck -10.0124 -1.375 -0.920758
upperneck 29.1189 -2.36749 2.1066
head 11.0817 -0.920447 0.635493
rclavicle -1.40889e-014 -3.57812e-015
rhumerus -11.709 -6.09933 -82.3569
rradius 33.7501
rwrist 36.3053
rhand -22.5882 -27.9179
rfingers 7.12502
rthumb 3.84079 -57.8631
lclavicle -1.40889e-014 -3.57812e-015
lhumerus -15.1841 -6.06662 87.4922
lradius 23.8436
lwrist 9.63847
lhand -29.1012 -10.1652
lfingers 7.12502
lthumb -2.4494 19.8004
rfemur -38.198 -2.41642 22.1801
rtibia 69.8471
rfoot -24.7115 -4.68329
rtoes -0.134255
lfemur -37.9426 7.39958 -15.853
ltibia 70.3562
lfoot -21.223 10.8188
ltoes -18.806
318
root -0.119784 15.1226 7.3709 -4.04128 -0.272773 -2.25932
lowerback 9.61798 1.48037 -2.58482
upperback 2.92937 1.74858 0.974432
thorax -2.45324 0.8719 2.26017
lowerneck -9.99791 -1.38072 -0.972637
upperneck 29.1367 -2.38667 2.18547
head 11.0877 -0.92525 0.671014
rclavicle -1.21507e-014 -6.75868e-015
rhumerus -10.9678 -5.469 -82.4031
rradius 34.133
rwrist 35.9364
rhand -22.3776 -27.8746
rfingers 7.12502
rthumb 4.0441 -57.8159
lclavicle -1.21507e-014 -6.75868e-015
lhumerus -14.9804 -6.58867 87.6045
lradius 24.1346
lwrist 11.3071
lhand -29.3051 -10.8355
lfingers 7.12502
lthumb -2.64639 19.1278
rfemur -37.4904 -2.3168 22.1272
rtibia 68.8506
rfoot -24.5761 -4.53212
rtoes 0.255106
lfemur -37.3898 7.49871 -15.9384
ltibia 69.6023
lfoot -20.8051 10.7631
ltoes -18.5266
319
root -0.119649 15.2329 7.43189 -3.79584 -0.272373 -2.25699
lowerback 9.73504 1.49035 -2.57566
upperback 2.97925 1.7584 0.928786
thorax -2.46489 0.876278 2.20462
lowerneck -9.96018 -1.3653 -0.970763
upperneck 29.1852 -2.36658 2.19013
head 11.0984 -0.915173 0.675337
rclavicle -6.28657e-015 3.77691e-015
rhumerus -10.2542 -4.80976 -82.4418
rradius 34.395
rwrist 35.5926
rhand -22.1254 -27.8439
rfingers 7.12502
rthumb 4.28772 -57.7805
lclavicle -6.28657e-015 3.77691e-015
lhumerus -14.9034 -7.10764 87.7259
lradius 24.2963
lwrist 12.542
lhand -29.4233 -11.3778
lfingers 7.12502
lthumb -2.76049 18.5841
rfemur -36.801 -2.2729 22.1055
rtibia 67.7222
rfoot -24.3633 -4.3818
rtoes 0.715006
lfemur -36.9041 7.45522 -15.9929
ltibia 68.7452
lfoot -20.3034 10.6322
ltoes -18.1324
320
root -0.120179 15.3501 7.48847 -3.46561 -0.185151 -2.2913
lowerback 9.79115 1.45884 -2.54394
upperback 3.01645 1.71756 0.903485
thorax -2.45319 0.855315 2.16473
lowerneck -9.90918 -1.33226 -0.919598
upperneck 29.2492 -2.31386 2.13105
head 11.1101 -0.892501 0.652061
rclavicle 6.33626e-015 -7.35503e-015
rhumerus -9.58267 -4.15756 -82.4761
rradius 34.5861
rwrist 35.2724
rhand -21.8873 -27.7959
rfingers 7.12502
rthumb 4.51762 -57.7278
lclavicle 6.33626e-015 -7.35503e-015
lhumerus -14.9584 -7.63383 87.8591
lradius 24.366
lwrist 13.2519
lhand -29.5152 -11.7344
lfingers 7.12502
lthumb -2.84924 18.2263
rfemur -36.1127 -2.28599 22.1204
rtibia 66.3062
rfoot -23.9604 -4.20852
rtoes 1.25546
lfemur -36.4631 7.28381 -16.01
ltibia 67.6171
lfoot -19.6317 10.36
ltoes -17.6242
321
root -0.121397 15.4729 7.54205 -3.04287 -0.0345286 -2.35554
lowerback 9.76534 1.39648 -2.49585
upperback 3.03997 1.64002 0.896782
thorax -2.4087 0.815873 2.14085
lowerneck -9.84519 -1.2861 -0.829881
upperneck 29.3114 -2.2365 2.02348
head 11.1171 -0.860315 0.607505
rclavicle -6.58474e-015 -9.14409e-015
rhumerus -8.96501 -3.55025 -82.5078
rradius 34.7439
rwrist 34.981
rhand -21.67 -27.725
rfingers 7.12502
rthumb 4.72743 -57.6522
lclavicle -6.58474e-015 -9.14409e-015
lhumerus -15.1409 -8.16127 88.0085
lradius 24.363
lwrist 13.4195
lhand -29.6357 -11.9095
lfingers 7.12502
lthumb -2.96568 18.0496
rfemur -35.486 -2.33865 22.1704
rtibia 64.7875
rfoot -23.4974 -4.04392
rtoes 1.8478
lfemur -36.1091 7.02456 -15.9882
ltibia 66.384
lfoot -18.9459 9.98932
ltoes -16.9225
322
root -0.123215 15.5995 7.59357 -2.52315 0.163778 -2.42583
lowerback 9.64297 1.31482 -2.45088
upperback 3.05349 1.53914 0.897597
thorax -2.32054 0.764446 2.13087
lowerneck -9.80394 -1.23747 -0.750845
upperneck 29.3864 -2.15673 1.92719
head 11.1339 -0.826589 0.569057
rclavicle -9.29318e-015 -2.18663e-015
rhumerus -8.40739 -3.05041 -82.549
rradius 34.9007
rwrist 34.7401
rhand -21.5128 -27.6274
rfingers 7.12502
rthumb 4.87921 -57.5512
lclavicle -9.29318e-015 -2.18663e-015
lhumerus -15.4265 -8.66022 88.1652
lradius 24.3111
lwrist 13.1095
lhand -29.8074 -11.9098
lfingers 7.12502
lthumb -3.13149 18.047
rfemur -34.9362 -2.42603 22.2328
rtibia 63.1889
rfoot -22.9847 -3.87716
rtoes 2.49172
lfemur -35.8326 6.71112 -15.9498
ltibia 65.0362
lfoot -18.2759 9.53589
ltoes -16.0167
323
root -0.125741 15.728 7.64375 -1.91588 0.376146 -2.51537
lowerback 9.43368 1.22881 -2.39664
upperback 3.05096 1.43551 0.909182
thorax -2.20119 0.711473 2.12807
lowerneck -9.77406 -1.19171 -0.718527
upperneck 29.4679 -2.08816 1.88991
head 11.1572 -0.795912 0.558767
rclavicle 6.4605e-015 8.74653e-015
rhumerus -7.94533 -2.67782 -82.5988
rradius 35.0949
rwrist 34.535
rhand -21.4232 -27.4992
rfingers 7.12502
rthumb 4.96574 -57.421
lclavicle 6.4605e-015 8.74653e-015
lhumerus -15.8114 -9.08032 88.3266
lradius 24.2245
lwrist 12.4369
lhand -29.999 -11.7925
lfingers 7.12502
lthumb -3.31654 18.1615
rfemur -34.4604 -2.51692 22.3281
rtibia 61.5263
rfoot -22.4283 -3.71451
rtoes 3.16126
lfemur -35.6106 6.3898 -15.8721
ltibia 63.5625
lfoot -17.6229 9.03427
ltoes -14.9444
324
root -0.128685 15.8573 7.69346 -1.24228 0.580299 -2.60646
lowerback 9.14993 1.14849 -2.34877
upperback 3.04414 1.34032 0.924204
thorax -2.04599 0.662331 2.13199
lowerneck -9.76892 -1.15305 -0.725978
upperneck 29.5457 -2.03678 1.90642
head 11.1856 -0.770867 0.572746
rclavicle 8.54774e-015 4.77083e-015
rhumerus -7.57685 -2.44336 -82.6692
rradius 35.3495
rwrist 34.3461
rhand -21.3735 -27.3808
rfingers 7.12502
rthumb 5.01367 -57.3015
lclavicle 8.54774e-015 4.77083e-015
lhumerus -16.263 -9.38576 88.4829
lradius 24.1121
lwrist 11.5791
lhand -30.1933 -11.5927
lfingers 7.12502
lthumb -3.50413 18.3583
rfemur -34.0411 -2.6002 22.4364
rtibia 59.8157
rfoot -21.8391 -3.54585
rtoes 3.83782
lfemur -35.3962 6.08515 -15.7734
ltibia 61.9483
lfoot -17.0139 8.53091
ltoes -13.7079
